<svg width="43" height="43" viewBox="0 0 43 43" fill="none" xmlns="http://www.w3.org/2000/svg">
<ellipse cx="21" cy="22.5" rx="18" ry="19.5" fill="white"/>
<g clip-path="url(#clip0_0_1)">
<path fill-rule="evenodd" clip-rule="evenodd" d="M21.1676 1.05875C16.172 1.06134 11.3402 2.83067 7.53623 6.05038C3.73223 9.27008 1.20408 13.7302 0.403813 18.6332C-0.396452 23.5362 0.583349 28.5624 3.16804 32.813C5.75273 37.0637 9.77375 40.2616 14.5121 41.8349C15.5575 42.0289 15.9512 41.381 15.9512 40.8301C15.9512 40.2792 15.9303 38.682 15.9233 36.9358C10.0693 38.2004 8.83233 34.4655 8.83233 34.4655C7.87757 32.0402 6.49769 31.4027 6.49769 31.4027C4.58817 30.1069 6.64057 30.1311 6.64057 30.1311C8.75568 30.2801 9.86725 32.2896 9.86725 32.2896C11.7419 35.4875 14.7909 34.5625 15.9895 34.022C16.1777 32.6673 16.7248 31.7457 17.3276 31.2225C12.6514 30.6959 7.73819 28.9011 7.73819 20.8838C7.7092 18.8045 8.48519 16.7938 9.90557 15.2675C9.68953 14.7409 8.96822 12.6135 10.1111 9.72398C10.1111 9.72398 11.8778 9.1627 15.899 11.8686C19.348 10.9308 22.9871 10.9308 26.4362 11.8686C30.4538 9.1627 32.217 9.72398 32.217 9.72398C33.3634 12.6066 32.6421 14.7339 32.4261 15.2675C33.8509 16.794 34.6286 18.8083 34.5969 20.8907C34.5969 28.9254 29.6733 30.6959 24.9901 31.2121C25.7427 31.8635 26.4153 33.135 26.4153 35.0891C26.4153 37.8886 26.3909 40.1406 26.3909 40.8301C26.3909 41.3879 26.7707 42.0393 27.8369 41.8349C32.5759 40.2614 36.5973 37.0629 39.1819 32.8116C41.7666 28.5602 42.7458 23.5333 41.9447 18.6298C41.1435 13.7263 38.6141 9.26616 34.8088 6.04701C31.0036 2.82787 26.1707 1.0597 21.1745 1.05875H21.1676Z" fill="#191717"/>
<path d="M8.09314 31.1012C8.04784 31.2052 7.88058 31.2363 7.74469 31.1636C7.60879 31.0908 7.50775 30.9557 7.55653 30.8483C7.60531 30.7409 7.76909 30.7132 7.90498 30.7859C8.04088 30.8587 8.14541 30.9973 8.09314 31.1012Z" fill="#191717"/>
<path d="M8.9469 32.0471C8.87474 32.0832 8.79218 32.0933 8.71336 32.0756C8.63454 32.0579 8.56436 32.0135 8.51482 31.9501C8.37892 31.8045 8.35103 31.6036 8.45557 31.5135C8.5601 31.4234 8.74828 31.465 8.88418 31.6105C9.02008 31.756 9.05143 31.957 8.9469 32.0471Z" fill="#191717"/>
<path d="M9.77616 33.2493C9.64723 33.3394 9.42769 33.2493 9.30573 33.0691C9.27201 33.0368 9.24519 32.9981 9.22687 32.9552C9.20855 32.9124 9.1991 32.8663 9.1991 32.8197C9.1991 32.7731 9.20855 32.727 9.22687 32.6842C9.24519 32.6413 9.27201 32.6026 9.30573 32.5702C9.43466 32.4836 9.6542 32.5702 9.77616 32.7469C9.89812 32.9236 9.9016 33.1592 9.77616 33.2493V33.2493Z" fill="#191717"/>
<path d="M10.9017 34.4135C10.7867 34.5417 10.5533 34.507 10.3616 34.3338C10.17 34.1606 10.1247 33.925 10.2396 33.8002C10.3546 33.6755 10.5881 33.7101 10.7867 33.8799C10.9853 34.0497 11.0237 34.2887 10.9017 34.4135V34.4135Z" fill="#191717"/>
<path d="M12.4801 35.0925C12.4279 35.2554 12.1909 35.3281 11.954 35.2588C11.717 35.1895 11.5602 34.9955 11.6055 34.8292C11.6508 34.6629 11.8912 34.5867 12.1317 34.6629C12.3721 34.7391 12.5254 34.9228 12.4801 35.0925Z" fill="#191717"/>
<path d="M14.2017 35.2103C14.2017 35.3801 14.0066 35.5256 13.7557 35.5291C13.5048 35.5326 13.2992 35.394 13.2992 35.2242C13.2992 35.0544 13.4943 34.9089 13.7452 34.9054C13.9961 34.902 14.2017 35.0371 14.2017 35.2103Z" fill="#191717"/>
<path d="M15.8043 34.9436C15.8357 35.1134 15.6615 35.2901 15.4106 35.3316C15.1597 35.3732 14.9402 35.2727 14.9088 35.1064C14.8774 34.9401 15.0586 34.76 15.3026 34.7149C15.5465 34.6699 15.773 34.7738 15.8043 34.9436Z" fill="#191717"/>
</g>
<defs>
<clipPath id="clip0_0_1">
<rect width="42.35" height="42.35" fill="white"/>
</clipPath>
</defs>
</svg>
