<svg width="43" height="43" viewBox="0 0 43 43" fill="none" xmlns="http://www.w3.org/2000/svg">
<circle cx="21.175" cy="21.175" r="21.175" fill="white"/>
<path d="M9.77273 30.7548H13.9091V20.7093L8 16.2775V28.982C8 29.9615 8.7933 30.7548 9.77273 30.7548Z" fill="#4285F4"/>
<path d="M28.0909 30.7548H32.2272C33.2067 30.7548 34 29.9615 34 28.982V16.2775L28.0909 20.7093V30.7548Z" fill="#34A853"/>
<path d="M28.0909 13.0275V20.7093L34 16.2775V13.9139C34 11.7231 31.4989 10.4718 29.7454 11.7866L28.0909 13.0275Z" fill="#FBBC04"/>
<path fill-rule="evenodd" clip-rule="evenodd" d="M13.9091 20.7093V13.0275L21 18.3457L28.0909 13.0275V20.7093L21 26.0275L13.9091 20.7093Z" fill="#EA4335"/>
<path d="M8 13.9139V16.2775L13.9091 20.7093V13.0275L12.2545 11.7866C10.501 10.4718 8 11.7231 8 13.9139Z" fill="#C5221F"/>
</svg>
