<svg width="100" height="100" viewBox="0 0 100 100" fill="none" xmlns="http://www.w3.org/2000/svg">
<circle cx="50" cy="50" r="50" fill="#F1F5F9"/>
<path d="M48.25 70C48.25 70.9665 49.0335 71.75 50 71.75C50.9665 71.75 51.75 70.9665 51.75 70H48.25ZM51.2374 34.7626C50.554 34.0791 49.446 34.0791 48.7626 34.7626L37.6256 45.8995C36.9422 46.5829 36.9422 47.691 37.6256 48.3744C38.309 49.0578 39.4171 49.0578 40.1005 48.3744L50 38.4749L59.8995 48.3744C60.5829 49.0578 61.691 49.0578 62.3744 48.3744C63.0578 47.691 63.0578 46.5829 62.3744 45.8995L51.2374 34.7626ZM51.75 70L51.75 36H48.25L48.25 70H51.75Z" fill="#36597D"/>
</svg>
