<svg width="36" height="36" viewBox="0 0 36 36" fill="none" xmlns="http://www.w3.org/2000/svg">
<path d="M1.75092 14.0145L1.75234 14.0131L13.1292 2.62793C13.1293 2.62775 13.1295 2.62757 13.1297 2.6274C14.4228 1.33754 16.1742 0.613301 18 0.613301C19.8259 0.613301 21.5774 1.33765 22.8706 2.62769C22.8707 2.62777 22.8708 2.62785 22.8708 2.62793L34.2477 14.0131L34.6812 13.5799L34.2491 14.0145C34.6109 14.3742 34.8977 14.8022 35.093 15.2737C35.2883 15.7452 35.3881 16.2508 35.3867 16.7612V16.763V31.4973C35.3867 32.529 34.9771 33.5183 34.2482 34.2477C33.5192 34.977 32.5307 35.3867 31.5 35.3867H4.50001C3.46932 35.3867 2.48076 34.977 1.75184 34.2477C1.0229 33.5183 0.613319 32.529 0.613319 31.4973L0.613321 16.763L0.613316 16.7612C0.611863 16.2508 0.711678 15.7452 0.906964 15.2737C1.10225 14.8022 1.38912 14.3742 1.75092 14.0145ZM22.5 33.6115H23.1133V32.9982V27.0937C23.1133 25.7369 22.5747 24.4357 21.6158 23.4762C20.6569 22.5168 19.3562 21.9777 18 21.9777C16.6438 21.9777 15.3431 22.5168 14.3842 23.4762C13.4253 24.4357 12.8867 25.7369 12.8867 27.0937V32.9982V33.6115H13.5H22.5ZM24.8867 32.9982V33.6115H25.5H31.5C32.0606 33.6115 32.5982 33.3887 32.9944 32.9921C33.3907 32.5956 33.6133 32.0579 33.6133 31.4973L33.6133 16.763L33.6133 16.759C33.6097 16.2023 33.3879 15.6692 32.9956 15.2742L32.9943 15.2728L21.6168 3.88702L21.6158 3.88598C20.6553 2.92943 19.3553 2.39235 18 2.39235C16.6447 2.39235 15.3447 2.92943 14.3842 3.88597L14.3833 3.88693L3.00577 15.2682L3.00436 15.2697C2.61052 15.6662 2.38867 16.2019 2.38671 16.7608V16.763V31.4973C2.38671 32.0579 2.60928 32.5956 3.00556 32.9921C3.40185 33.3887 3.93941 33.6115 4.50001 33.6115H10.5H11.1133V32.9982V27.0937C11.1133 25.2659 11.839 23.513 13.1305 22.2207C14.422 20.9284 16.1737 20.2025 18 20.2025C19.8263 20.2025 21.578 20.9284 22.8695 22.2207C24.161 23.513 24.8867 25.2659 24.8867 27.0937V32.9982Z" fill="white" stroke="white" stroke-width="1.2266"/>
</svg>
