<svg width="40" height="40" viewBox="0 0 40 40" fill="none" xmlns="http://www.w3.org/2000/svg">
<g clip-path="url(#clip0_217_9838)">
<path d="M19.9999 36.6666C21.8332 36.6666 23.3332 35.1666 23.3332 33.3333H16.6666C16.6666 35.1666 18.1666 36.6666 19.9999 36.6666ZM29.9999 26.6666V18.3333C29.9999 13.2166 27.2832 8.93329 22.4999 7.79996V6.66663C22.4999 5.28329 21.3832 4.16663 19.9999 4.16663C18.6166 4.16663 17.4999 5.28329 17.4999 6.66663V7.79996C12.7332 8.93329 9.9999 13.2 9.9999 18.3333V26.6666L6.66656 30V31.6666H33.3332V30L29.9999 26.6666ZM26.6666 28.3333H13.3332V18.3333C13.3332 14.2 15.8499 10.8333 19.9999 10.8333C24.1499 10.8333 26.6666 14.2 26.6666 18.3333V28.3333Z" fill="white"/>
</g>
<defs>
<clipPath id="clip0_217_9838">
<rect width="40" height="40" fill="white"/>
</clipPath>
</defs>
</svg>
