<svg width="370" height="330" viewBox="0 0 353 306" fill="none" xmlns="http://www.w3.org/2000/svg">
<path d="M124.299 172.939C170.766 160.58 207.16 124.309 219.606 77.865C221.277 71.6263 230.13 71.6263 231.801 77.865C244.247 124.309 280.641 160.58 327.108 172.939C333.371 174.605 333.371 183.506 327.108 185.172C280.641 197.531 244.247 233.802 231.801 280.246C230.13 286.485 221.277 286.485 219.606 280.246C207.16 233.802 170.766 197.531 124.299 185.172C118.036 183.506 118.036 174.605 124.299 172.939Z" fill="#4B518F" stroke="#4B518F" stroke-width="1.20865"/>
<path d="M48.8144 119.718C95.1082 107.405 131.368 71.2688 143.768 24.9972C145.433 18.7841 154.249 18.7841 155.914 24.9972C168.313 71.2688 204.573 107.405 250.867 119.718C257.104 121.377 257.104 130.243 250.867 131.902C204.573 144.215 168.313 180.351 155.914 226.623C154.249 232.836 145.433 232.836 143.768 226.623C131.368 180.351 95.1082 144.215 48.8144 131.902C42.5769 130.243 42.5769 121.377 48.8144 119.718Z" stroke="#4B518F" stroke-width="1.20865"/>
<path d="M231.873 36.6969C240.523 35.8319 247.372 28.9862 248.258 20.3391C248.44 18.5639 251.03 18.5639 251.212 20.3391C252.098 28.9862 258.946 35.8319 267.597 36.6969C269.371 36.8743 269.371 39.4598 267.597 39.6372C258.946 40.5022 252.098 47.3479 251.212 55.995C251.03 57.7702 248.44 57.7702 248.258 55.995C247.372 47.3479 240.523 40.5022 231.873 39.6372C230.099 39.4598 230.099 36.8743 231.873 36.6969Z" fill="#4B518F" stroke="#4B518F" stroke-width="1.20865"/>
<path d="M12.7326 85.573C18.0954 85.041 22.3438 80.7952 22.8973 75.4365C22.9794 74.6421 24.1405 74.642 24.2225 75.4365C24.776 80.7952 29.0244 85.041 34.3872 85.573C35.1792 85.6516 35.1792 86.8061 34.3873 86.8847C29.0244 87.4167 24.776 91.6625 24.2225 97.0212C24.1405 97.8156 22.9794 97.8156 22.8973 97.0212C22.3438 91.6625 18.0954 87.4167 12.7326 86.8847C11.9406 86.8061 11.9406 85.6516 12.7326 85.573Z" fill="#4B518F" stroke="#4B518F" stroke-width="1.20865"/>
</svg>
