<svg width="176" height="176" viewBox="0 0 176 176" fill="none" xmlns="http://www.w3.org/2000/svg">
<g clip-path="url(#clip0_106_287)">
<path d="M55.2263 110.712C55.2263 110.712 58.6583 121.863 53.5787 149.788C52.6694 154.8 51.3298 159.918 50.6503 164.113C42.0605 164.113 41.601 173.9 43.4245 173.9H53.6618C60.1983 173.9 68.1867 157.601 72.5036 134.98C76.8205 112.359 55.2263 110.712 55.2263 110.712V110.712ZM118.987 128.81C118.987 128.81 130.095 134.775 129.684 148.762C129.523 154.291 128.467 158.984 127.949 163.546C118.992 163.546 118.958 173.25 121.569 173.25H130.642C135.155 173.25 145.314 157.811 147.162 137.654C149.015 117.502 118.987 128.81 118.987 128.81V128.81Z" fill="#C5BA9D"/>
<path d="M176.001 41.2964C176.001 17.2333 155.756 4.88886 132.001 4.88886C129.297 4.88886 127.112 7.07908 127.112 9.77775C127.112 12.4764 129.297 14.6666 132.001 14.6666C140.82 14.6666 164.839 19.2329 164.839 41.2964C164.839 55.3813 157.178 67.9995 146.408 70.5418C145.606 70.1849 144.722 70.0333 143.92 69.6031C108.529 50.4533 78.13 74.0129 69.4816 68.1853C60.9162 62.4066 66.8465 52.272 55.6753 42.5529C54.062 33.5524 50.4296 20.6653 46.9047 20.6653C44.2207 20.6653 40.7202 29.5875 38.398 38.5391C35.5087 31.7875 31.7345 25.0653 29.3047 25.0653C26.1758 25.0653 23.0567 36.1778 21.5118 45.7698C13.2985 51.3773 7.30469 59.5026 7.30469 69.0653C7.30469 82.2653 27.1047 85.4773 33.7047 85.7413C40.3047 86.0053 48.4838 103.156 51.2314 110.538C57.3034 131.888 61.2585 153.066 64.4216 165.21C56.3598 165.21 55.602 175.531 57.8314 175.531C61.3171 175.531 67.3794 175.516 68.7091 175.531C75.4607 175.599 78.614 152.524 78.614 132.269C78.614 131.232 78.5602 129.204 78.5602 129.204C78.5602 129.204 87.9958 131.672 108.079 128.187C120.028 126.114 132.67 132.337 136.171 143.65C138.747 151.981 143.01 159.808 145.303 165.572C137.535 165.572 137.75 175.531 140.004 175.531C143.851 175.531 148.809 175.599 150.676 175.531C157.853 175.262 153.82 138.502 155.712 126.168C157.604 113.833 161.906 98.8973 154.592 83.16C170.413 74.4871 176.001 56.2466 176.001 41.2964Z" fill="white"/>
<path d="M29.3043 61.9325C31.7344 61.9325 33.7043 59.9625 33.7043 57.5325C33.7043 55.1024 31.7344 53.1325 29.3043 53.1325C26.8742 53.1325 24.9043 55.1024 24.9043 57.5325C24.9043 59.9625 26.8742 61.9325 29.3043 61.9325Z" fill="#292F33"/>
<path d="M14.5895 62.8711C11.2797 64.9391 11.2797 71.5587 9.62726 71.5587C7.97482 71.5587 4.66504 67.6671 4.66504 62.8711C4.66015 58.0751 18.657 60.3289 14.5895 62.8711Z" fill="black"/>
<path d="M32.1588 70.1214C31.9584 70.2485 31.7188 70.2974 31.4646 70.2485C31.3766 70.2289 23.8966 69.0703 19.0224 70.9623C18.3917 71.2067 17.3553 70.8498 17.0033 70.0285C16.6513 69.2071 17.1157 68.244 17.7464 67.9996C24.7864 65.2178 31.714 66.8556 32.0904 66.9338C32.77 67.0756 33.0437 67.8627 33.0095 68.7525C32.99 69.3098 32.5011 69.9014 32.1588 70.1214V70.1214ZM29.8513 81.5565C29.6166 81.6005 29.3771 81.5516 29.162 81.4049C29.0886 81.356 22.6548 77.3471 17.4188 77.2347C16.7442 77.22 15.9277 76.4818 15.9277 75.5676C15.9277 74.6583 16.7344 73.9298 17.414 73.9396C25.0015 74.0569 30.7313 78.2956 31.0491 78.5205C31.6211 78.9214 31.5575 79.7671 31.1811 80.5934C30.9415 81.1165 30.2571 81.4831 29.8513 81.5565V81.5565Z" fill="#C5BA9D"/>
<path d="M145.233 8.61318C145.335 8.74777 145.35 8.8751 145.262 8.97743C145.229 9.012 142.936 12.114 144.167 14.9967C144.326 15.3696 143.806 15.7355 142.909 15.6319C142.012 15.5284 141.089 14.9989 140.93 14.6261C139.102 10.4464 141.807 7.75732 141.943 7.60769C142.189 7.33776 143.039 7.46657 143.95 7.77205C144.52 7.96252 145.057 8.38241 145.233 8.61318V8.61318ZM156.663 13.4077C156.674 13.5312 156.588 13.6267 156.406 13.679C156.344 13.6972 151.272 15.385 150.387 17.7838C150.272 18.0928 149.392 18.2323 148.452 17.9348C147.516 17.6388 146.885 17.0266 146.995 16.7137C148.231 13.2229 153.436 11.9373 153.714 11.8626C154.211 11.7271 155.072 12.0319 155.867 12.4758C156.37 12.7575 156.647 13.1951 156.663 13.4077V13.4077Z" fill="#C5BA9D"/>
<path d="M38.3979 38.2409C38.3979 38.2409 40.2166 38.0502 42.5975 38.4022C43.6584 36.1533 45.4575 34.0658 45.4575 34.0658C45.4575 34.0658 46.8313 37.3316 47.3446 39.8298C47.4668 40.4165 48.4104 40.4018 48.9188 40.7538C48.9188 40.7538 49.1046 23.8236 44.6997 22C44.7046 21.9902 41.0086 27.4951 38.3979 38.2409V38.2409ZM21.5068 45.4716C21.5068 45.4716 23.3842 44.1662 25.8237 42.6653C26.8846 39.6147 28.6006 36.1485 28.6006 36.1485C28.6006 36.1485 30.1015 39.0916 30.2873 40.1085C31.3139 39.5511 31.3139 39.5902 32.2575 39.1796C32.2575 39.1796 31.7002 28.0036 26.8846 26.8253C26.8846 26.8253 23.3059 33.5329 21.5068 45.4716V45.4716Z" fill="#C5BA9D"/>
<path d="M90.1994 115.593C77.2487 118.38 78.5638 129.194 78.5638 129.194C78.5638 129.194 87.9994 131.663 108.083 128.177C113.299 127.272 118.609 128.03 123.273 130.02C115.416 115.124 102.177 113.012 90.1994 115.593Z" fill="#C5BA9D"/>
<path d="M71.7998 68.9773C74.1269 72.2822 83.5185 80.5542 85.2198 79.5324C86.8722 78.54 88.1043 69.4857 86.8918 66.3031C80.3945 68.0582 75.2318 69.52 71.7998 68.9773V68.9773ZM106.139 82.1235C109.185 82.7982 113.507 67.5595 113.033 61.9666C105.949 62.0497 99.4416 63.2182 93.6483 64.592C95.286 69.872 103.196 81.4684 106.139 82.1235ZM118.982 62.1671C119.188 65.7017 123.783 74.8928 125.265 75.548C126.766 76.2177 133.502 69.0995 134.387 65.472C129.078 63.624 123.915 62.5533 118.982 62.1671Z" fill="#C5BA9D"/>
</g>
<defs>
<clipPath id="clip0_106_287">
<rect width="176" height="176" fill="white"/>
</clipPath>
</defs>
</svg>
