<svg width="496" height="339" viewBox="0 0 496 339" fill="none" xmlns="http://www.w3.org/2000/svg">
<path d="M282.951 43.4169C310.327 45.3437 325.809 50.3808 351.698 60.011C377.211 69.5016 391.025 77.4137 413.179 93.8472C431.488 107.429 443.317 114.779 455.576 134.585C466.228 151.794 469.538 163.67 473.127 183.898C474.411 191.131 475.559 195.244 475.321 202.6C474.893 215.834 471.211 223.152 465.223 234.773C457.529 249.704 438.58 264.566 438.58 264.566C438.58 264.566 425.343 270.807 417.615 269.603C411.085 268.586 403.08 256.565 403.08 256.565C403.08 256.565 392.857 258.713 384.294 257.881C375.271 257.005 369.74 257.642 361.402 253.884C355.729 251.328 352.325 249.663 348.059 244.948C342.981 239.335 339.48 227.233 339.48 227.233C339.48 227.233 320.789 224.8 310.805 217.951C300.046 210.571 292.667 209.405 280.58 204.913C234.405 187.752 231.094 198.69 231.094 198.69C231.094 198.69 255.985 205.209 251.373 219.957C248.686 228.548 235.223 232.295 227.768 227.822C215.915 220.71 203.832 198.69 177.756 198.394C157.053 198.158 151.087 200.172 151.087 200.172C151.087 200.172 128.28 239.21 107.231 247.583C69.6762 262.523 1.04167 259.436 1.04167 259.436C1.04167 259.436 6.07802 241.238 25.7426 234.841C45.4071 228.445 60.7658 232.475 83.9695 223.463C104.772 215.382 116.135 171.418 116.135 171.418C116.135 171.418 113.106 141.533 122.937 120.351C136.99 90.0704 159.652 72.2333 188.861 58.8851C222.727 43.409 246.153 40.827 282.951 43.4169Z" fill="#D9D9D9"/>
<path d="M379.774 159.578C374.449 162.853 366.788 164.359 363.561 164.823C360.334 165.288 351.793 163.224 344.518 164.823C336.936 166.49 327.502 175.982 327.502 175.982C327.502 175.982 334.033 174.751 338.015 175.982C341.016 176.91 343.551 180.436 344.518 181.506C345.645 182.754 336.195 200.123 338.015 215.757C339.836 231.391 350.828 247.892 356.945 251.063C363.063 254.233 372.347 256.677 382.829 257.684C391.614 258.529 405.49 255.29 405.49 255.29C416.865 249.202 423.399 243.939 429.25 226.341C429.25 226.341 437.249 225.609 440.675 226.341C443.688 226.984 447.758 229.98 447.758 229.98C447.758 229.98 449.072 220.924 447.135 215.757C445.071 210.248 437.556 204.474 437.556 204.474" stroke="#8D8D8D" stroke-width="2.37058" stroke-linecap="round" stroke-linejoin="round"/>
<path d="M404.751 256.136C410.021 260.072 412.151 266.738 418.513 267.848C442.784 272.086 470.677 238.423 475.933 204.597C478.113 190.563 469.693 147.69 447.846 122.812C416.072 86.6324 346.801 44.6568 272.158 42.885C196.515 41.0895 109.184 81.6998 115.952 165.769C117.375 183.435 103.755 205.983 90.8636 217.847C81.2747 226.672 67.6761 228.514 33.9072 232.528C17.2363 234.51 -1.25684 252.816 1.78679 258.753C4.83042 264.691 47.5517 255.933 73.1923 255.004C90.6152 254.373 101.179 250.872 116.55 242.153C126.031 236.774 133.401 227.566 137.829 218.239C147.087 204.239 148.781 199.12 159.024 198.516C206.259 195.729 214.697 219.06 227.96 227.069C234.858 231.234 244.194 229.825 251.067 222.395C254.654 218.516 250.947 206.757 242.484 202.877C239.311 201.422 230.897 199.052 230.897 199.052C232.267 190.232 272.022 196.923 308.13 216.141C320.428 222.686 331.584 225.642 340.134 227.135" stroke="#8D8D8D" stroke-width="2.37058" stroke-linecap="round" stroke-linejoin="round"/>
<path d="M365.706 252.642C365.413 250.4 359.365 248.514 358.694 249.606C358.024 250.698 358.359 251.735 361.317 252.806C364.274 253.877 365.856 253.785 365.706 252.642Z" fill="#414141" stroke="#3D3D3D" stroke-width="1.50858" stroke-linecap="round" stroke-linejoin="round"/>
<path d="M346.541 234.813C346.541 234.813 352.306 244.681 349.145 248.89C346.316 252.657 341.356 251.791 339.816 247.261C338.096 242.2 346.541 234.813 346.541 234.813Z" fill="#BBFAFF"/>
<path d="M388.302 254.118C388.302 254.118 394.067 263.985 390.906 268.194C388.078 271.961 383.117 271.095 381.577 266.565C379.857 261.504 388.302 254.118 388.302 254.118Z" fill="#BBFAFF"/>
<path d="M353.612 230.256C353.612 230.256 355.362 232.412 356.711 233.523C357.969 234.558 360.192 235.767 360.192 235.767" stroke="#414141" stroke-width="2.96323" stroke-linecap="round"/>
<path d="M385.591 245.98C385.591 245.98 382.853 245.847 381.144 245.455C379.636 245.109 377.374 244.205 377.374 244.205" stroke="#414141" stroke-width="2.96323" stroke-linecap="round"/>
</svg>
