<svg width="216" height="89" viewBox="0 0 216 89" fill="none" xmlns="http://www.w3.org/2000/svg">
<path d="M34.6589 5.18H36.7789V7.26C36.7789 11.54 35.0389 15.72 31.5589 17.3L30.0589 15.2C33.1589 13.82 34.6589 10.4 34.6589 7.26V5.18ZM35.2589 5.18H37.3589V7.26C37.3589 10.26 38.8389 13.46 41.9389 14.74L40.4989 16.84C36.9789 15.32 35.2589 11.38 35.2589 7.26V5.18ZM30.7989 4.04H41.1789V6.22H30.7989V4.04ZM42.8989 2.26H45.5789V20.78H42.8989V2.26ZM62.4174 2.26H65.0774V20.78H62.4174V2.26ZM50.5774 4.02H53.2174V15.52H50.5774V4.02ZM50.5774 13.96H52.2174C54.9174 13.96 57.9174 13.76 60.9774 13.16L61.2774 15.36C58.0974 16.02 55.0374 16.22 52.2174 16.22H50.5774V13.96Z" fill="#278EFF"/>
<path d="M10.2748 48.4878C10.2748 37.6339 19.0736 28.8351 29.9275 28.8351V28.8351V57.2797H10.2748V48.4878Z" fill="#278EFF" stroke="#278EFF" stroke-width="0.805851"/>
<rect x="10.2748" y="57.2797" width="19.6526" height="2.12144" fill="#278EFF" stroke="#278EFF" stroke-width="0.805851"/>
<path fill-rule="evenodd" clip-rule="evenodd" d="M10.6315 71.9399C10.3974 70.727 10.2748 69.4744 10.2748 68.1931V59.4012H29.9274V87.8457C25.1684 87.8457 20.8045 86.1542 17.4041 83.3395C14.0117 85.5995 8.57203 87.7477 2 86.5528C3.81011 85.7771 10.792 81.1225 10.5334 71.8134C10.5648 71.8565 10.5975 71.8987 10.6315 71.9399Z" fill="#278EFF"/>
<path d="M10.6315 71.9399L10.3209 72.1965L11.0272 71.8635L10.6315 71.9399ZM10.2748 59.4012V58.9982H9.87187V59.4012H10.2748ZM29.9274 59.4012H30.3304V58.9982H29.9274V59.4012ZM29.9274 87.8457V88.2487H30.3304V87.8457H29.9274ZM17.4041 83.3395L17.661 83.0291L17.4301 82.838L17.1807 83.0042L17.4041 83.3395ZM2 86.5528L1.84128 86.1825L0.610885 86.7098L1.92792 86.9493L2 86.5528ZM10.5334 71.8134L10.8592 71.5764L10.0945 70.5249L10.1306 71.8245L10.5334 71.8134ZM9.87187 68.1931C9.87187 69.5001 9.99696 70.7783 10.2359 72.0162L11.0272 71.8635C10.7979 70.6756 10.6777 69.4486 10.6777 68.1931H9.87187ZM9.87187 59.4012V68.1931H10.6777V59.4012H9.87187ZM29.9274 58.9982H10.2748V59.8041H29.9274V58.9982ZM30.3304 87.8457V59.4012H29.5245V87.8457H30.3304ZM17.1472 83.6499C20.6171 86.5222 25.0712 88.2487 29.9274 88.2487V87.4428C25.2656 87.4428 20.9918 85.7862 17.661 83.0291L17.1472 83.6499ZM1.92792 86.9493C8.6283 88.1675 14.1727 85.9764 17.6275 83.6748L17.1807 83.0042C13.8507 85.2226 8.51577 87.328 2.07208 86.1564L1.92792 86.9493ZM10.1306 71.8245C10.2568 76.3679 8.61843 79.7681 6.72782 82.1314C4.8293 84.5046 2.68461 85.821 1.84128 86.1825L2.15872 86.9232C3.1255 86.5088 5.3768 85.1102 7.35708 82.6348C9.34528 80.1496 11.0685 76.5679 10.9361 71.8022L10.1306 71.8245ZM10.9422 71.6832C10.9133 71.6483 10.8857 71.6127 10.8592 71.5764L10.2075 72.0503C10.2439 72.1003 10.2817 72.149 10.3209 72.1965L10.9422 71.6832Z" fill="#278EFF"/>
<rect x="29.9274" y="28.8351" width="165.42" height="59.0106" fill="#278EFF"/>
<rect x="29.9274" y="28.8351" width="165.42" height="59.0106" stroke="#278EFF" stroke-width="0.805851"/>
<path d="M58.6876 45.6996H60.9627V59.7336H58.6876V45.6996ZM60.3322 51.7298H64.6357V53.6211H60.3322V51.7298ZM51.8351 47.2894H54.2472C54.2472 53.5389 49.8889 58.0342 42.5978 60.0077L41.7207 58.1986C48.1347 56.4444 51.8351 52.8536 51.8351 48.3035V47.2894ZM42.7897 47.2894H53.0959V49.1258H42.7897V47.2894ZM45.3663 60.9122H60.9627V70.1495H45.3663V60.9122ZM58.715 62.7487H47.6139V68.2856H58.715V62.7487ZM75.7621 47.8376H77.626V52.278C77.626 57.7601 74.6657 63.1051 70.746 65.1882L69.3481 63.3792C72.9388 61.5701 75.7621 56.8007 75.7621 52.278V47.8376ZM76.1732 47.8376H78.0097V52.278C78.0097 56.6362 80.7781 61.1589 84.2867 62.9132L82.8887 64.7223C79.0513 62.6665 76.1732 57.5956 76.1732 52.278V47.8376ZM86.4521 45.6996H88.7545V70.4784H86.4521V45.6996ZM88.2063 55.7317H92.8112V57.6504H88.2063V55.7317ZM114.6 45.6996H116.875V60.0899H114.6V45.6996ZM115.889 52.0039H120.548V53.9226H115.889V52.0039ZM101.306 61.1863H103.527V63.8177H114.628V61.1863H116.875V70.1495H101.306V61.1863ZM103.527 65.572V68.313H114.628V65.572H103.527ZM97.7155 48.2213H112.353V50.0852H97.7155V48.2213ZM105.034 51.209C108.57 51.209 110.955 52.9359 110.955 55.5672C110.955 58.1986 108.57 59.9255 105.034 59.9255C101.471 59.9255 99.0861 58.1986 99.0861 55.5672C99.0861 52.9359 101.471 51.209 105.034 51.209ZM105.034 52.9359C102.759 52.9359 101.251 53.9775 101.251 55.5672C101.251 57.157 102.759 58.1986 105.034 58.1986C107.254 58.1986 108.789 57.157 108.789 55.5672C108.789 53.9775 107.254 52.9359 105.034 52.9359ZM103.883 45.4529H106.158V49.2355H103.883V45.4529ZM143.626 45.6996H145.901V70.4784H143.626V45.6996ZM127.179 48.1117H129.427V63.4614H127.179V48.1117ZM127.179 62.1183H129.208C132.963 62.1183 136.883 61.8442 141.076 60.9671L141.351 62.9132C137.047 63.7903 133.127 64.0918 129.208 64.0918H127.179V62.1183ZM170.321 45.6721H172.623V70.5058H170.321V45.6721ZM172.075 55.4576H176.68V57.3763H172.075V55.4576ZM154.615 62.4198H156.561C161.139 62.4198 164.346 62.2553 168.046 61.5701L168.293 63.4888C164.483 64.2015 161.221 64.3385 156.561 64.3385H154.615V62.4198ZM154.615 48.0842H166.127V49.9481H156.863V63.2695H154.615V48.0842Z" fill="white"/>
<path d="M215 48.4878C215 37.6339 206.201 28.8351 195.347 28.8351V28.8351V57.2797H215V48.4878Z" fill="#278EFF" stroke="#278EFF" stroke-width="0.805851"/>
<rect width="19.6526" height="2.12144" transform="matrix(-1 0 0 1 215 57.2797)" fill="#278EFF" stroke="#278EFF" stroke-width="0.805851"/>
<path d="M215 68.1931C215 79.047 206.201 87.8458 195.347 87.8458V87.8458V59.4012H215V68.1931Z" fill="#278EFF" stroke="#278EFF" stroke-width="0.805851"/>
</svg>
